<?xml version="1.0" encoding="utf-8"?>
<!-- Generator: Adobe Illustrator 24.1.0, SVG Export Plug-In . SVG Version: 6.00 Build 0)  -->
<svg version="1.1" id="Layer_1" xmlns="http://www.w3.org/2000/svg" xmlns:xlink="http://www.w3.org/1999/xlink" x="0px" y="0px"
	 viewBox="0 0 211.7 46" style="enable-background:new 0 0 211.7 46;" xml:space="preserve">
<style type="text/css">
	.st0{fill:#192330;}
	.st1{font-family:'Arial-BoldItalicMT';}
	.st2{font-size:15.7759px;}
	.st3{letter-spacing:2;}
</style>
<g>
	<g>
		<path class="st0" d="M13.5,27.7h-3.2c-0.5,0-0.8-0.4-0.8-0.8l0,0c0-0.5,0.4-0.8,0.8-0.8h3.2c0.5,0,0.8,0.4,0.8,0.8l0,0
			C14.4,27.3,14,27.7,13.5,27.7z"/>
		<path class="st0" d="M61.9,31c0,0.2,0.4,0.5,0.6,0.5c2.3,0,4.6,0,7,0c0.2,0,0.5-0.2,0.5-0.4c0-1.1,0-2.2,0-3.4c-2.8,0-5.4,0-8.2,0
			C61.8,28.9,61.8,30,61.9,31z"/>
		<path class="st0" d="M54.1,31.2c0.1,0.2,0.4,0.4,0.6,0.4c1,0,2,0,3,0c0.2,0,0.5-0.2,0.5-0.3c0-1.1,0-2.3,0-3.4c-1.9,0-3.6,0-5.4,0
			C53.3,28.9,53.7,30.1,54.1,31.2z"/>
		<path class="st0" d="M58.2,12.1c-3.6,0-7.1,0-10.8,0c0.4,1.2,0.8,2.2,1.1,3.3c0.2,0.5,0.5,0.7,1,0.7c2.1,0,4.3,0,6.4,0
			c0.7,0,1.5,0,2.2,0C58.2,14.7,58.2,13.4,58.2,12.1z"/>
		<path class="st0" d="M52,24.1c2,0,4.1,0,6.2,0c0-1.6,0-3,0-4.5c-2.7,0-5.4,0-8.1,0c0.5,1.5,1,2.8,1.5,4.2
			C51.6,24,51.8,24.1,52,24.1z"/>
		<path class="st0" d="M61.9,19.6c0,1.5,0,3,0,4.5c2.7,0,5.3,0,8,0c0-1.5,0-3,0-4.5C67.2,19.6,64.6,19.6,61.9,19.6z"/>
		<path class="st0" d="M49.8,33c1.1-0.8,0.5-1.7,0.2-2.6c-2.8-8-5.5-16-8.3-23.9c-0.2-0.6-0.5-0.9-1.1-1.1c-2.1-0.8-4.2-1.6-6.3-2.5
			l6.2,3.3l1,2.9h-1.1H24.3h-7.8c-0.4,0-0.7,0.3-0.7,0.7V10c0,0.4,0.3,0.7,0.7,0.7h7.1h13.4c0.4,0,0.7,0.3,0.7,0.7v0.3
			c0,0.4-0.3,0.7-0.7,0.7h-7.6h-6.6H5.5c-0.4,0-0.7,0.3-0.7,0.7v0.3c0,0.4,0.3,0.7,0.7,0.7h2.7h14h9.9c0.4,0,0.7,0.3,0.7,0.7v0.3
			c0,0.4-0.3,0.7-0.7,0.7H21.5H9.6c-0.4,0-0.7,0.3-0.7,0.7v0.3c0,0.4,0.3,0.7,0.7,0.7h5.8h5.4h18.6c0.4,0,0.7,0.3,0.7,0.7v0.3
			c0,0.4-0.3,0.7-0.7,0.7H25.1h-5H1.2c-0.4,0-0.7,0.3-0.7,0.7v0.3c0,0.4,0.3,0.7,0.7,0.7H11h8.3h15.6c0.4,0,0.7,0.3,0.7,0.7v0.3
			c0,0.4-0.3,0.7-0.7,0.7H18.6h-5.4c-0.4,0-0.7,0.3-0.7,0.7v0.3c0,0.4,0.3,0.7,0.7,0.7h4.7h10.5c0.4,0,0.7,0.3,0.7,0.7v0.3
			c0,0.4-0.3,0.7-0.7,0.7H17.1H16c-0.4,0-0.7,0.3-0.7,0.7V27c0,0.4,0.3,0.7,0.7,0.7h0.4h15c0.4,0,0.7,0.3,0.7,0.7v0.3
			c0,0.4-0.3,0.7-0.7,0.7h-4H15.7H3.6c-0.4,0-0.7,0.3-0.7,0.7v0.3c0,0.4,0.3,0.7,0.7,0.7H15l0,0c0,0,0.1,0,0.1,0H39
			c0.4,0,0.7,0.3,0.7,0.7V32c0,0.4-0.3,0.7-0.7,0.7h-1.9h-15h-9c-0.4,0-0.7,0.3-0.7,0.7v0.3c0,0.4,0.3,0.7,0.7,0.7h9h15h12.2
			C49.5,34,49.6,33.5,49.8,33z"/>
		<path class="st0" d="M62.3,12.1c-0.1,0-0.4,0.4-0.4,0.6c0,0.9,0,1.7,0,2.6c0,0.6,0.2,0.8,0.8,0.8c2.2,0,4.3,0,6.5,0
			c0.3,0,0.6,0,0.9-0.1c0-1.3,0-2.5,0-3.9C67.4,12,64.8,12,62.3,12.1z"/>
		<path class="st0" d="M82.7,15.6c0.4-1.1,0.7-2.2,1.2-3.5c-3.5,0-6.8,0-10.2,0c0,1.3,0,2.6,0,3.9c2.9,0,5.7,0,8.6,0
			C82.4,16,82.7,15.8,82.7,15.6z"/>
		<path class="st0" d="M77.7,31.2c0.4-1.1,0.7-2.2,1.1-3.4c-1.8,0-3.5,0-5.2,0c0,1.3,0,2.5,0,3.8c1.2,0,2.4,0,3.6,0
			C77.4,31.5,77.7,31.3,77.7,31.2z"/>
		<path class="st0" d="M73.6,19.6c0,1.5,0,3,0,4.5c2,0,4,0,6,0c0.2,0,0.5-0.3,0.5-0.5c0.4-1.3,0.8-2.6,1.3-4
			C78.8,19.6,76.2,19.6,73.6,19.6z"/>
		<path class="st0" d="M59.7,40.3c0,1.5-1.2,2.8-2.8,2.8c-1.5,0-2.8-1.2-2.8-2.8s1.2-2.8,2.8-2.8C58.5,37.6,59.7,38.8,59.7,40.3z"/>
		<path class="st0" d="M77.5,40.3c0,1.5-1.2,2.8-2.8,2.8c-1.5,0-2.8-1.2-2.8-2.8s1.2-2.8,2.8-2.8C76.3,37.6,77.5,38.8,77.5,40.3z"/>
	</g>
	<text transform="matrix(1 0 0 1 88.8067 22.7584)" class="st0 st1 st2">NIGHT MARKET</text>
	<text transform="matrix(1 0 0 1 85.8365 36.5533)" class="st0 st1 st2 st3">PHILIPPINES</text>
</g>
</svg>
